<?xml version="1.0" encoding="utf-8"?>
<!-- Generator: Adobe Illustrator 21.0.0, SVG Export Plug-In . SVG Version: 6.00 Build 0)  -->
<svg version="1.1" id="Livello_1" xmlns="http://www.w3.org/2000/svg" xmlns:xlink="http://www.w3.org/1999/xlink" x="0px" y="0px"
	 viewBox="0 0 302.7 315.6" style="enable-background:new 0 0 302.7 315.6;" xml:space="preserve">
<style type="text/css">
	.st0{fill:#FFFFFF;}
</style>
<title>Risorsa 1</title>
<g id="Livello_2">
	<g id="Livello_1-2">
		<path class="st0" d="M37.5,297c0,4.9-2,9.7-5.5,13.1c-3.5,3.6-8.3,5.6-13.3,5.5c-5,0.1-9.8-1.9-13.2-5.5c-7.3-7.3-7.3-19.2,0-26.5
			c3.5-3.6,8.3-5.6,13.3-5.5c4-0.1,7.9,1.2,11.1,3.6v-11.1c0.1-2.1,1.9-3.7,4-3.6c2,0.1,3.5,1.7,3.6,3.6V297z M29.9,297.6
			c0-0.2,0-0.5,0-0.7v-1.4c-0.3-2.5-1.4-4.8-3.2-6.5c-2.1-2.1-4.9-3.3-7.9-3.3c-6.2,0-11.2,5-11.2,11.1c0,0,0,0,0,0.1
			c0,3,1.1,5.8,3.2,7.9c2.1,2.1,4.9,3.3,7.9,3.3c3,0,5.8-1.1,7.9-3.3C28.6,302.9,29.8,300.3,29.9,297.6L29.9,297.6z"/>
		<path class="st0" d="M75.3,315.6c-4.9-0.1-9.6-2.1-13.1-5.6c-3.5-3.4-5.5-8.2-5.5-13.1v-14.5c-0.1-1.2,0.3-2.4,1.1-3.3
			c1.5-1.5,3.9-1.5,5.4,0c0,0,0,0,0,0c0.8,0.9,1.2,2.1,1.1,3.2v14.5c0,0.2,0,0.5,0,0.7c0.1,2.7,1.3,5.2,3.2,7.1
			c2.1,2.1,4.9,3.3,7.9,3.3h0.2c3,0,5.8-1.1,7.9-3.3c2-1.9,3.1-4.4,3.2-7.1c0-0.2,0-0.5,0-0.7v-14.5c-0.1-1.2,0.3-2.4,1.1-3.2
			c1.5-1.5,3.9-1.5,5.4,0c0,0,0,0,0,0c0.8,0.9,1.2,2.1,1.1,3.3v14.5c0,4.9-2,9.7-5.5,13.1c-3.5,3.4-8.2,5.4-13.1,5.6L75.3,315.6z"/>
		<path class="st0" d="M136.9,286.6c-4.2-1.8-9.2-0.9-12.4,2.3c-4.4,4.4-4.4,11.4,0,15.8c4.4,4.4,11.4,4.4,15.8,0l0,0l0.1-0.1
			c0.7-0.7,1.7-1.1,2.7-1.1c1,0,2,0.4,2.7,1.1c0.7,0.7,1.1,1.7,1.1,2.7c0,1-0.4,2-1.1,2.7l-0.1,0.1c-7.4,7.3-19.2,7.3-26.5-0.1
			s-7.3-19.2,0.1-26.5c7.3-7.3,19.1-7.3,26.5,0l0,0l0,0c0.7,0.7,1.1,1.7,1.1,2.7c0,1-0.4,1.9-1.1,2.6l-10.8,10.7
			c-0.7,0.7-1.7,1.1-2.7,1.1c-2.1,0.1-3.8-1.6-3.8-3.6c0-0.1,0-0.1,0-0.2c0-1,0.4-2,1.1-2.7L136.9,286.6z"/>
		<path class="st0" d="M195.4,283.5L195.4,283.5c1.5,1.5,1.4,3.9,0,5.3c-0.7,0.7-1.6,1.1-2.6,1.1c-1,0-2-0.4-2.7-1.1l0,0
			c-4.4-4.3-11.4-4.3-15.8,0.1c-4.3,4.4-4.3,11.4,0.1,15.8c4.3,4.3,11.4,4.3,15.7,0l0.1-0.1c0.7-0.7,1.7-1.1,2.7-1.1
			c1,0,2,0.4,2.7,1.1c0.7,0.7,1.1,1.7,1.1,2.7c0,1-0.4,2-1.1,2.7l-0.1,0.1c-7.4,7.3-19.2,7.3-26.5-0.1s-7.3-19.2,0.1-26.5
			C176.3,276.2,188.1,276.2,195.4,283.5L195.4,283.5z"/>
		<path class="st0" d="M222.8,268c0.7,0.7,1.1,1.7,1.1,2.7v41c-0.1,2.1-1.9,3.7-4,3.6c-2-0.1-3.5-1.7-3.6-3.6v-41
			c0-2.1,1.7-3.8,3.8-3.8C221.1,266.9,222,267.3,222.8,268z"/>
		<path class="st0" d="M246.7,274.3c-2.1,0-3.9-1.7-3.9-3.8s1.7-3.9,3.8-3.9s3.9,1.7,3.9,3.8c0,1-0.4,2-1.1,2.7
			C248.7,273.9,247.7,274.3,246.7,274.3z M246.7,315.6c-2.1,0-3.8-1.7-3.8-3.8v-30.1c0.1-2.1,1.9-3.7,4-3.6c2,0.1,3.5,1.7,3.6,3.6
			v30.1C250.5,313.9,248.8,315.6,246.7,315.6L246.7,315.6z"/>
		<path class="st0" d="M301.5,283.5L301.5,283.5c1.5,1.5,1.4,3.9,0,5.3c-0.7,0.7-1.6,1.1-2.6,1.1c-1,0-2-0.4-2.7-1.1l0,0
			c-4.4-4.3-11.4-4.3-15.8,0.1c-4.3,4.4-4.3,11.4,0.1,15.8c4.3,4.3,11.4,4.3,15.7,0l0.1-0.1c0.7-0.7,1.7-1.1,2.7-1.1
			c1,0,2,0.4,2.7,1.1c0.7,0.7,1.1,1.7,1.1,2.7c0,1-0.4,2-1.1,2.7l-0.1,0.1c-7.4,7.3-19.2,7.3-26.5-0.1c-7.3-7.4-7.3-19.2,0.1-26.5
			C282.4,276.2,294.2,276.2,301.5,283.5L301.5,283.5z"/>
		<path class="st0" d="M117.4,135.8"/>
		<path class="st0" d="M183.4,187.6c-1.6,0-3.3-0.3-4.8-0.8l0,0c-7.8-2.7-11.9-11.2-9.2-19l11.9-34.4c2.9-7.7,11.5-11.7,19.2-8.8
			c7.5,2.8,11.4,10.9,9,18.5l-11.9,34.5C195.5,183.6,189.8,187.6,183.4,187.6L183.4,187.6z M195.3,130c-3.5,0-6.7,2.2-7.8,5.6
			L175.6,170c-1.5,4.3,0.8,9,5.1,10.5l0,0c4.3,1.5,9-0.8,10.5-5.1l11.9-34.5c1.5-4.3-0.8-9-5.1-10.5
			C197.1,130.1,196.2,129.9,195.3,130L195.3,130z"/>
		<path class="st0" d="M190.6,239.4c-1.9,0-3.4-1.5-3.4-3.3c-0.1-1.8,1.3-3.3,3.1-3.3c0,0,0.1,0,0.1,0h0.2c3.6,0,6.4-3,6.4-6.5
			c0,0,0-0.1,0-0.1v-12.9c-0.1-0.8,0.1-1.7,0.6-2.4c9-12,9.3-14.5,9.3-37.8c0-13.2-4.2-29.2-4.2-29.3c-0.2-0.6-0.1-1.3,0.1-1.9
			c1.7-4.3-0.4-9.1-4.7-10.8c-4.3-1.7-9.1,0.4-10.8,4.7c-0.1,0.2-0.1,0.3-0.2,0.5l0,0c-0.6,1.7-2.5,2.7-4.2,2.1
			c-1.7-0.6-2.7-2.5-2.1-4.2l0,0l0,0l2.2-6.5c1.4-4.2-0.8-8.7-5-10.2c0,0,0,0,0,0l-0.6-0.2c-4.2-1.4-8.7,0.8-10.2,5c0,0,0,0,0,0
			l-1.2,3.6c-0.6,1.7-2.6,2.6-4.3,2c-1.5-0.6-2.4-2.1-2.1-3.6l5.8-31.1c0.2-1.8,1.9-3.1,3.7-2.9s3.1,1.9,2.9,3.7
			c0,0.1,0,0.2-0.1,0.3l-3.2,17.3c3.4-1.6,7.3-1.8,10.9-0.6l0.6,0.2c5.9,2,9.8,7.5,9.9,13.7c7.8-2.7,16.3,1.4,19,9.2
			c1,2.9,1.1,6,0.3,9c0.9,3.8,4.2,17.8,4.2,30.1c0,23.1-0.3,27.8-9.9,40.8v12.3c0.1,7.2-5.6,13.1-12.8,13.2
			C190.7,239.4,190.6,239.4,190.6,239.4z"/>
		<path class="st0" d="M177.1,239.4h-3.3c-1.8,0-3.3-1.5-3.3-3.3s1.5-3.3,3.3-3.3l0,0h3.3c1.8,0,3.3,1.5,3.3,3.3
			S178.9,239.4,177.1,239.4L177.1,239.4z"/>
		<path class="st0" d="M160.5,239.4h-29.9c-7.3,0-13.2-5.9-13.2-13.2v-11.8c-3.5-3.3-13.3-13.8-13.3-28c0-0.1,0-0.3,0-0.4
			c0-10.6,0.9-18.2,11.4-25.5l2.7-2.3l-4.1-20.9l-9.6-63.7c-0.8-4.4,0.2-9,2.6-12.8c2.6-4.2,7.2-6.8,12.1-7
			c4.1,0,11.4,2.1,14.6,15.8l6.6,39.7l6.8-42.8c1.4-8,7-16.1,15.1-16.1c4.6,0,9,2.6,11.8,7c2.4,3.9,3.2,8.6,2.2,13.1l-4.3,23.7
			c-0.2,1.8-1.9,3.1-3.7,2.9s-3.1-1.9-2.9-3.7c0-0.1,0-0.2,0.1-0.3l4.4-23.6c0.6-2.8,0.1-5.8-1.4-8.3c-1.6-2.5-3.9-4-6.2-4
			c-4.2,0-7.7,5.5-8.6,10.5l-9.9,62.9c-0.3,1.6-1.6,2.8-3.3,2.8c-1.6,0-3-1.2-3.3-2.8l-9.9-59.7c-1.1-4.7-3.4-10.5-8.1-10.5
			c-2.7,0.2-5.2,1.7-6.6,4c-1.5,2.4-2.1,5.3-1.5,8.1l9.6,63.6l4.4,22.7c0.3,1.2-0.2,2.5-1.1,3.3l-4.4,3.7c-8,5.6-8.7,10.3-8.7,20.6
			c0,0.1,0,0.3,0,0.4c0.2,13.7,11.9,23.5,12.1,23.6c0.8,0.6,1.2,1.6,1.2,2.6v13.3c0,3.6,3,6.6,6.6,6.6h29.9c1.8,0,3.3,1.5,3.3,3.3
			S162.4,239.4,160.5,239.4L160.5,239.4z"/>
		<path class="st0" d="M131.3,186.3c-1.8-0.1-3.3-1.6-3.2-3.4c0-1.2,0.8-2.3,1.9-2.9c7.9-3.4,29.2-21.3,33.3-31.7
			c1.2-3.1,0.5-6.7-1.6-8.3c-2.5-2-7-1.2-12.2,2.3c-3.1,2.1-9.3,7-15.8,12.2c-4.6,3.7-9.6,7.6-14.2,11.2c-1.5,1-3.6,0.7-4.6-0.8
			c-1-1.4-0.7-3.3,0.6-4.4c4.6-3.6,9.6-7.5,14.1-11.2c7-5.6,13-10.4,16.3-12.6c11-7.4,17.6-3.9,20-2c4.4,3.5,5.9,10,3.7,15.9
			c-5,12.7-27.8,31.5-36.9,35.4C132.2,186.2,131.7,186.3,131.3,186.3z"/>
		<path class="st0" d="M162.6,177.7c-1.6,0-3.2-0.3-4.7-0.8l-0.6-0.2c-2.5-0.9-4.7-2.4-6.4-4.5c-1-1.2-1-3,0-4.2
			c6.2-7.5,10.9-14.4,12.6-18.7c1.5-3.9-1.1-10.4-4.9-12c-1.6-0.7-2.4-2.5-1.8-4.1l4.6-13.2c2.6-7.6,10.9-11.7,18.6-9.1l0.6,0.2
			c7.6,2.6,11.7,10.9,9.1,18.6l-13.1,38.2C174.3,173.7,168.8,177.7,162.6,177.7L162.6,177.7z M157.9,169.7c0.5,0.3,1,0.5,1.5,0.7
			l0.6,0.2c4.2,1.4,8.7-0.8,10.2-5c0,0,0,0,0,0l13.1-38.2c1.4-4.2-0.8-8.7-5-10.2c0,0,0,0,0,0l0,0l-0.6-0.2c-4.2-1.4-8.7,0.8-10.1,5
			l-3.7,10.7c5.4,4.2,8.2,12.7,5.7,19C167.9,156.1,163.7,162.6,157.9,169.7L157.9,169.7z"/>
		<path class="st0" d="M144.9,13.9V4c0-5.3-8.3-5.3-8.3,0v9.9C136.6,19.3,144.9,19.3,144.9,13.9L144.9,13.9z"/>
		<path class="st0" d="M114.4,33h-9.9c-5.3,0-5.3,8.3,0,8.3h9.9C119.7,41.3,119.8,33,114.4,33z"/>
		<path class="st0" d="M173.7,33h-9.9c-5.3,0-5.3,8.3,0,8.3h9.9C179,41.3,179,33,173.7,33z"/>
		<path class="st0" d="M160.1,23.5l6.6-6.6c3.8-3.8-2.1-9.6-5.9-5.9l-6.6,6.6C150.5,21.4,156.4,27.3,160.1,23.5z"/>
		<path class="st0" d="M123.9,17.6l-6.6-6.6c-3.8-3.8-9.6,2.1-5.9,5.9l6.6,6.6C121.8,27.3,127.7,21.4,123.9,17.6L123.9,17.6z"/>
	</g>
</g>
</svg>
